<svg xmlns="http://www.w3.org/2000/svg" width="180" height="180" viewBox="0 0 180 180" version="1.1">
	<path d="M 73.654 41.214 C 73.029 43.606, 74.661 45.287, 76.832 44.489 C 77.564 44.220, 78.802 44, 79.582 44 C 82.775 44, 79.108 39.095, 75.867 39.032 C 74.968 39.014, 73.973 39.996, 73.654 41.214 M 84 41.609 C 84 44.003, 84.290 44.185, 87.500 43.810 C 89.425 43.585, 91 43.761, 91 44.201 C 91 44.640, 92.095 45, 93.433 45 C 95.913 45, 97.748 42.020, 96.506 40.009 C 95.654 38.630, 92.662 38.738, 91.200 40.200 C 90.267 41.133, 90 41.133, 90 40.200 C 90 39.533, 88.667 39, 87 39 C 84.433 39, 84 39.377, 84 41.609 M 64.882 40.750 C 64.816 41.163, 64.842 41.914, 64.938 42.419 C 65.034 42.925, 64.418 42.762, 63.569 42.058 C 61.515 40.353, 56.606 41.530, 57.378 43.542 C 58.005 45.177, 56.460 45.554, 55.500 44 C 54.212 41.916, 52 43.013, 51.970 45.750 C 51.944 48.101, 51.791 48.246, 50.920 46.750 C 50.359 45.788, 49.260 45, 48.477 45 C 46.170 45, 38.052 49.275, 38.618 50.192 C 38.904 50.654, 39.506 50.805, 39.956 50.527 C 40.405 50.249, 41.329 50.692, 42.009 51.511 C 43.596 53.423, 45 53.418, 45 51.500 C 45 50.675, 44.523 50, 43.941 50 C 43.359 50, 43.202 49.482, 43.594 48.849 C 44.095 48.037, 44.662 48.185, 45.513 49.349 C 46.867 51.200, 49 51.563, 49 49.941 C 49 49.359, 49.441 49.154, 49.979 49.487 C 50.518 49.820, 51.980 49.540, 53.229 48.865 C 54.478 48.190, 56.850 47.492, 58.500 47.314 C 60.150 47.136, 62.175 46.695, 63 46.334 C 63.825 45.974, 65.761 45.577, 67.302 45.454 C 70.845 45.169, 71.341 44.649, 70.524 42.075 C 70.095 40.724, 69.016 40, 67.433 40 C 66.095 40, 64.947 40.337, 64.882 40.750 M 98 43 C 98 46.576, 99.491 46.808, 102.821 43.750 L 105.271 41.500 104.136 43.684 C 102.528 46.777, 102.649 47, 105.941 47 C 107.559 47, 109.160 47.450, 109.500 48 C 109.840 48.550, 110.998 49, 112.073 49 C 113.148 49, 114.809 49.417, 115.764 49.927 C 118.698 51.494, 121.408 52.374, 123.495 52.438 C 124.593 52.472, 125.493 53.034, 125.495 53.688 C 125.498 54.341, 128.200 56.789, 131.500 59.128 C 134.800 61.468, 137.862 63.974, 138.303 64.697 C 138.912 65.694, 139.599 65.750, 141.139 64.926 C 142.257 64.327, 143.422 64.089, 143.729 64.395 C 144.035 64.702, 143.547 65.237, 142.643 65.583 C 141.739 65.930, 141 66.594, 141 67.059 C 141 67.734, 143.948 67.733, 148.924 67.058 C 149.956 66.917, 144.513 62, 143.326 62 C 142.597 62, 142.112 61.438, 142.250 60.750 C 142.407 59.967, 141.566 59.595, 140 59.753 C 138.116 59.944, 137.860 59.774, 138.961 59.063 C 140.161 58.290, 139.897 57.706, 137.493 55.810 C 133.745 52.854, 129.847 50.819, 129.191 51.476 C 128.910 51.757, 128.034 51.065, 127.244 49.939 C 126.455 48.812, 125.070 48.032, 124.166 48.206 C 123.262 48.381, 121.699 47.699, 120.692 46.692 C 118.989 44.989, 118.689 44.974, 116.402 46.472 C 113.567 48.330, 111.252 47.606, 113.060 45.428 C 113.987 44.311, 113.648 43.803, 111.359 42.879 C 109.786 42.244, 106.791 41.615, 104.702 41.481 C 102.614 41.348, 100.626 40.960, 100.286 40.619 C 98.898 39.232, 98 40.168, 98 43 M 86.500 42 C 86.160 42.550, 86.359 43, 86.941 43 C 87.523 43, 88 42.550, 88 42 C 88 41.450, 87.802 41, 87.559 41 C 87.316 41, 86.840 41.450, 86.500 42 M 60.500 44 C 60.840 44.550, 61.316 45, 61.559 45 C 61.802 45, 62 44.550, 62 44 C 62 43.450, 61.523 43, 60.941 43 C 60.359 43, 60.160 43.450, 60.500 44 M 110 44.500 C 110 44.775, 110.225 45, 110.500 45 C 110.775 45, 111 44.775, 111 44.500 C 111 44.225, 110.775 44, 110.500 44 C 110.225 44, 110 44.225, 110 44.500 M 47 47.500 C 47 47.775, 47.225 48, 47.500 48 C 47.775 48, 48 47.775, 48 47.500 C 48 47.225, 47.775 47, 47.500 47 C 47.225 47, 47 47.225, 47 47.500 M 63.500 47.660 C 57.889 48.859, 46.275 53.487, 40.744 56.728 C 33.346 61.062, 25.293 69.068, 22.223 75.141 C 19.973 79.593, 17 87.552, 17 89.126 C 17 89.607, 19.475 90, 22.500 90 C 27.389 90, 28 89.771, 28 87.937 C 28 84.355, 33.326 74.805, 38.003 70 C 43.793 64.052, 50.468 60.155, 60.484 56.875 C 68.414 54.279, 68.503 54.212, 68.810 50.625 C 69.136 46.824, 68.658 46.557, 63.500 47.660 M 117.500 48 C 117.160 48.550, 117.332 49, 117.882 49 C 118.432 49, 119.160 48.550, 119.500 48 C 119.840 47.450, 119.668 47, 119.118 47 C 118.568 47, 117.840 47.450, 117.500 48 M 104.478 52.042 C 103.584 53.771, 102.998 55.309, 103.176 55.459 C 103.354 55.609, 107.325 57.515, 112 59.695 C 125.662 66.065, 133.970 74.748, 136.934 85.756 L 138.077 90 143.118 90 L 148.159 90 147.488 86.750 C 144.729 73.376, 133.056 60.398, 117.423 53.322 C 106.644 48.444, 106.354 48.415, 104.478 52.042 M 125 50.500 C 125 50.775, 125.225 51, 125.500 51 C 125.775 51, 126 50.775, 126 50.500 C 126 50.225, 125.775 50, 125.500 50 C 125.225 50, 125 50.225, 125 50.500 M 32.557 53.223 C 31.701 54.445, 31 55.110, 31 54.699 C 31 54.289, 29.879 54.688, 28.509 55.586 C 27.138 56.484, 26.308 57.689, 26.663 58.264 C 27.024 58.849, 26.831 59.014, 26.224 58.638 C 25.627 58.269, 24.873 58.397, 24.548 58.922 C 24.223 59.447, 24.755 60.383, 25.729 61.002 C 27.228 61.953, 27.087 62.039, 24.811 61.559 C 21.393 60.839, 20.288 62.556, 22.557 65.063 C 24.717 67.450, 23.787 67.645, 21.439 65.297 C 19.835 63.692, 19.597 63.765, 17.345 66.547 C 16.029 68.171, 14.335 70.713, 13.580 72.197 C 12.368 74.577, 12.400 74.944, 13.853 75.331 C 14.968 75.627, 14.774 75.805, 13.250 75.884 C 10.586 76.021, 10.249 77.657, 12.750 78.311 C 14.003 78.638, 13.828 78.801, 12.133 78.884 C 10.168 78.980, 9.848 79.424, 10.245 81.500 C 10.541 83.052, 10.264 84, 9.514 84 C 8.848 84, 8.266 85.350, 8.219 87 C 8.140 89.764, 8.402 90, 11.548 90 C 15.184 90, 15.825 88.986, 16.286 82.500 C 16.404 80.850, 17.136 79.003, 17.912 78.395 C 18.689 77.787, 19.043 76.555, 18.698 75.657 C 18.354 74.759, 18.393 74.131, 18.786 74.262 C 19.179 74.393, 19.583 74.122, 19.683 73.659 C 19.784 73.196, 20.684 72.216, 21.683 71.480 C 23.209 70.357, 23.260 70.064, 22 69.651 C 17.953 68.323, 17.772 68.075, 20.999 68.279 C 23.787 68.455, 24.700 68.042, 25.487 66.250 C 26.030 65.013, 27.010 64, 27.665 64 C 28.319 64, 29.740 62.875, 30.821 61.500 C 31.903 60.125, 33.286 59, 33.894 59 C 34.502 59, 35 58.657, 35 58.237 C 35 57.818, 35.983 57.030, 37.185 56.487 C 39.848 55.284, 40.764 53, 38.583 53 C 37.712 53, 37 52.550, 37 52 C 37 50.177, 34.138 50.964, 32.557 53.223 M 134.405 56.155 C 133.962 56.870, 134.130 57.038, 134.845 56.595 C 135.998 55.883, 136.393 55, 135.559 55 C 135.316 55, 134.797 55.520, 134.405 56.155 M 30 56.500 C 30 56.775, 30.225 57, 30.500 57 C 30.775 57, 31 56.775, 31 56.500 C 31 56.225, 30.775 56, 30.500 56 C 30.225 56, 30 56.225, 30 56.500 M 98.750 60.470 C 96.176 64.009, 96.499 64.619, 101.999 66.597 C 109.616 69.336, 117.719 76.199, 120.573 82.330 C 128.006 98.294, 118.871 113.171, 97.573 119.789 C 94.136 120.857, 88.695 121.357, 80.699 121.340 L 68.898 121.315 69.199 124.908 L 69.500 128.500 79.500 128.799 C 99.080 129.385, 112.783 125.220, 122.830 115.632 C 141.966 97.369, 134.997 71.107, 108.117 60.187 C 101.444 57.476, 100.915 57.492, 98.750 60.470 M 28 59.500 C 28 59.775, 28.225 60, 28.500 60 C 28.775 60, 29 59.775, 29 59.500 C 29 59.225, 28.775 59, 28.500 59 C 28.225 59, 28 59.225, 28 59.500 M 135 59.500 C 135 59.775, 135.225 60, 135.500 60 C 135.775 60, 136 59.775, 136 59.500 C 136 59.225, 135.775 59, 135.500 59 C 135.225 59, 135 59.225, 135 59.500 M 69 92 L 69 118 81.500 118 L 94 118 94 92 L 94 66 81.500 66 L 69 66 69 92 M 145.250 69.662 C 143.421 70.400, 143.719 72.322, 146.051 74.824 C 147.179 76.035, 147.850 77.434, 147.542 77.932 C 147.234 78.431, 147.548 79.438, 148.241 80.169 C 148.933 80.901, 149.545 82.063, 149.600 82.750 C 149.655 83.438, 149.767 85.067, 149.850 86.372 C 149.982 88.466, 150.468 88.731, 153.993 88.639 C 157.519 88.546, 157.913 88.298, 157.359 86.517 C 157.013 85.408, 156.229 84.169, 155.615 83.765 C 154.807 83.233, 154.818 83.026, 155.656 83.015 C 156.318 83.007, 156.589 82.145, 156.290 81 C 155.938 79.653, 154.926 79, 153.192 79 C 150.787 79, 150.739 78.911, 152.462 77.652 C 154.670 76.037, 153.735 74.045, 150.691 73.884 C 148.891 73.789, 148.825 73.684, 150.323 73.297 C 151.449 73.005, 151.928 72.254, 151.573 71.331 C 151.258 70.509, 151 69.648, 151 69.418 C 151 68.855, 146.811 69.032, 145.250 69.662 M 15.333 73.667 C 15.700 74.033, 16.300 74.033, 16.667 73.667 C 17.033 73.300, 16.733 73, 16 73 C 15.267 73, 14.967 73.300, 15.333 73.667 M 16 76.500 C 16 76.775, 16.225 77, 16.500 77 C 16.775 77, 17 76.775, 17 76.500 C 17 76.225, 16.775 76, 16.500 76 C 16.225 76, 16 76.225, 16 76.500 M 12 81.031 C 12 81.564, 12.675 82, 13.500 82 C 14.325 82, 15 81.823, 15 81.607 C 15 81.391, 14.325 80.955, 13.500 80.638 C 12.675 80.322, 12 80.499, 12 81.031 M 7 115 L 7 137 36.500 137 L 66 137 66 115 L 66 93 36.500 93 L 7 93 7 115 M 136.957 96.750 C 129.717 119.412, 108.401 131.974, 79.250 130.756 L 69 130.328 69 134.059 C 69 137.707, 69.095 137.801, 73.250 138.268 C 80.512 139.086, 99.077 137.057, 108.500 134.416 C 130.732 128.186, 143.253 115.921, 147.463 96.250 L 148.159 93 143.157 93 C 138.257 93, 138.131 93.076, 136.957 96.750 M 155 94.927 C 155 95.436, 155.787 96.059, 156.750 96.311 C 158.417 96.746, 158.417 96.774, 156.750 96.884 C 154.763 97.016, 154.340 98.925, 156.250 99.142 C 156.938 99.220, 155.726 99.557, 153.558 99.892 L 149.616 100.500 152.173 103.250 C 156.646 108.061, 159.943 106.373, 159.986 99.250 C 159.994 97.923, 160.615 97, 161.500 97 C 163.811 97, 163.275 95.307, 160.750 94.630 C 157.446 93.745, 155 93.871, 155 94.927 M 151 98 C 151 98.550, 151.450 99, 152 99 C 152.550 99, 153 98.550, 153 98 C 153 97.450, 152.550 97, 152 97 C 151.450 97, 151 97.450, 151 98 M 154.572 101.750 C 155.069 102.162, 155.813 102.950, 156.223 103.500 C 156.649 104.071, 156.976 103.749, 156.985 102.750 C 156.993 101.777, 156.260 101, 155.333 101 C 154.417 101, 154.074 101.338, 154.572 101.750 M 148.250 108.662 C 145.930 109.599, 146.979 111, 150 111 C 153.582 111, 153.947 112.689, 150.636 113.948 C 147.823 115.018, 146.404 118.014, 148.188 119.116 C 150.252 120.392, 146.213 121.418, 143.676 120.262 C 142.057 119.524, 141.140 119.624, 140.189 120.643 C 139.126 121.781, 139.215 122.124, 140.699 122.593 C 145.998 124.269, 147.285 125.115, 146.195 126.205 C 145.382 127.018, 144.672 126.973, 143.542 126.035 C 142.550 125.211, 142 125.143, 142 125.842 C 142 127.790, 145.952 129.285, 147.564 127.947 C 149.333 126.479, 149.427 124.322, 147.750 123.711 C 147.063 123.461, 148.188 122.924, 150.250 122.517 C 153.553 121.866, 155.614 120, 153.031 120 C 152.499 120, 152.303 119.375, 152.596 118.611 C 152.929 117.742, 153.949 117.432, 155.315 117.784 C 157.198 118.269, 157.323 118.131, 156.220 116.785 C 155.201 115.542, 155.190 114.678, 156.164 112.540 C 157.170 110.331, 157.131 109.695, 155.943 108.944 C 154.410 107.973, 150.327 107.824, 148.250 108.662 M 155 110.500 C 155 110.775, 155.225 111, 155.500 111 C 155.775 111, 156 110.775, 156 110.500 C 156 110.225, 155.775 110, 155.500 110 C 155.225 110, 155 110.225, 155 110.500 M 149.405 117.155 C 148.962 117.870, 149.130 118.038, 149.845 117.595 C 150.998 116.883, 151.393 116, 150.559 116 C 150.316 116, 149.797 116.520, 149.405 117.155 M 134.441 127.532 C 135.509 128.339, 136.746 129, 137.191 129 C 137.636 129, 138 129.460, 138 130.023 C 138 130.586, 136.897 130.323, 135.549 129.440 C 132.867 127.683, 129.515 128.214, 128.624 130.538 C 127.966 132.251, 130.100 132.500, 131.704 130.896 C 132.508 130.092, 133.307 130.104, 134.654 130.944 C 136.303 131.973, 136.254 132.028, 134.186 131.460 C 132.320 130.948, 131.933 131.180, 132.186 132.662 C 132.441 134.156, 131.844 134.500, 129 134.500 C 126.280 134.500, 125.531 134.890, 125.639 136.250 C 125.809 138.394, 123.693 138.540, 122 136.500 C 121.315 135.675, 120.270 135, 119.678 135 C 118.934 135, 118.948 135.348, 119.722 136.122 C 120.339 136.739, 120.606 137.864, 120.315 138.622 C 120.024 139.380, 120.284 140, 120.893 140 C 122.854 140, 122.071 142.036, 119.750 142.969 C 117.613 143.828, 117.643 143.876, 120.344 143.937 C 122.278 143.980, 123.338 143.423, 123.659 142.194 C 124.147 140.328, 130 137.460, 130 139.087 C 130 139.589, 130.488 140, 131.083 140 C 131.679 140, 131.977 139.438, 131.744 138.750 C 131.512 138.063, 133.356 136.150, 135.843 134.500 C 138.330 132.850, 140.530 130.982, 140.733 130.348 C 140.935 129.715, 139.659 128.478, 137.897 127.598 C 133.907 125.608, 131.845 125.568, 134.441 127.532 M 111 138 C 110.207 138.490, 109.890 139.223, 110.296 139.629 C 110.701 140.035, 111.558 139.842, 112.200 139.200 C 112.842 138.558, 113.159 137.825, 112.904 137.571 C 112.650 137.317, 111.793 137.510, 111 138 M 69 139.917 C 69 140.421, 69.563 141.066, 70.250 141.349 C 71.007 141.662, 70.613 142.135, 69.250 142.549 C 66.129 143.498, 66.440 145.264, 70.006 146.842 C 71.659 147.574, 72.757 148.584, 72.447 149.086 C 71.771 150.179, 75.340 150.326, 76.418 149.250 C 76.831 148.838, 81.196 148.500, 86.118 148.500 C 92.593 148.500, 95.300 148.123, 95.912 147.137 C 96.626 145.986, 96.833 145.986, 97.242 147.137 C 97.508 147.887, 98.073 148.177, 98.498 147.782 C 98.922 147.387, 98.730 145.763, 98.071 144.172 C 97.205 142.080, 96.268 141.344, 94.686 141.512 C 93.484 141.640, 90.782 141.802, 88.683 141.872 C 85.344 141.984, 84.945 142.251, 85.500 144 C 85.943 145.397, 85.680 146, 84.626 146 C 83.797 146, 82.826 145.528, 82.470 144.951 C 82.027 144.235, 81.376 144.273, 80.411 145.074 C 79.337 145.965, 78.665 145.967, 77.597 145.081 C 76.599 144.252, 76.089 144.233, 75.828 145.015 C 75.619 145.643, 74.677 145.813, 73.635 145.413 C 72.242 144.879, 71.943 144.033, 72.379 141.856 C 72.853 139.486, 72.614 139, 70.975 139 C 69.889 139, 69 139.412, 69 139.917 M 112 142 C 112 143.273, 112.667 144, 113.833 144 C 116.374 144, 117.190 142.934, 115.869 141.342 C 114.210 139.344, 112 139.720, 112 142 M 105 143.300 C 105 144.015, 105.540 145.140, 106.200 145.800 C 107.133 146.733, 106.898 147, 105.141 147 C 103.890 147, 103.158 147.446, 103.500 148 C 105.528 151.281, 110.761 147.111, 108.866 143.724 C 107.737 141.708, 105 141.408, 105 143.300 M 87.327 144.473 C 87.504 145.009, 89.043 145.517, 90.747 145.602 C 92.836 145.707, 93.690 145.357, 93.371 144.525 C 92.818 143.083, 86.850 143.032, 87.327 144.473 M 95 144 C 95 144.733, 95.300 145.033, 95.667 144.667 C 96.033 144.300, 96.033 143.700, 95.667 143.333 C 95.300 142.967, 95 143.267, 95 144" stroke="none" fill="#000000" fill-rule="evenodd"/>
</svg>